<mxfile host="app.diagrams.net" agent="Mozilla/5.0 (Windows NT 10.0; Win64; x64) AppleWebKit/537.36 (KHTML, like Gecko) Chrome/136.0.0.0 Safari/537.36" version="26.3.0">
  <diagram name="Page-1" id="h409t5_GortY_32qzmHB">
    <mxGraphModel dx="1303" dy="659" grid="0" gridSize="10" guides="1" tooltips="1" connect="1" arrows="1" fold="1" page="1" pageScale="1" pageWidth="1920" pageHeight="1200" math="0" shadow="0">
      <root>
        <mxCell id="0" />
        <mxCell id="1" parent="0" />
        <mxCell id="3iICQHhBgKHDvJo1p9LD-3" style="edgeStyle=orthogonalEdgeStyle;rounded=0;orthogonalLoop=1;jettySize=auto;html=1;strokeWidth=3;" edge="1" parent="1" source="3iICQHhBgKHDvJo1p9LD-1" target="3iICQHhBgKHDvJo1p9LD-2">
          <mxGeometry relative="1" as="geometry" />
        </mxCell>
        <mxCell id="3iICQHhBgKHDvJo1p9LD-1" value="" style="sketch=0;outlineConnect=0;fontColor=#232F3E;gradientColor=none;fillColor=#232F3D;strokeColor=none;dashed=0;verticalLabelPosition=bottom;verticalAlign=top;align=center;html=1;fontSize=12;fontStyle=0;aspect=fixed;pointerEvents=1;shape=mxgraph.aws4.source_code;" vertex="1" parent="1">
          <mxGeometry x="60" y="200" width="57" height="78" as="geometry" />
        </mxCell>
        <mxCell id="3iICQHhBgKHDvJo1p9LD-2" value="" style="dashed=0;outlineConnect=0;html=1;align=center;labelPosition=center;verticalLabelPosition=bottom;verticalAlign=top;shape=mxgraph.weblogos.github" vertex="1" parent="1">
          <mxGeometry x="322" y="200" width="75" height="78" as="geometry" />
        </mxCell>
        <mxCell id="3iICQHhBgKHDvJo1p9LD-4" value="" style="sketch=0;points=[[0,0,0],[0.25,0,0],[0.5,0,0],[0.75,0,0],[1,0,0],[0,1,0],[0.25,1,0],[0.5,1,0],[0.75,1,0],[1,1,0],[0,0.25,0],[0,0.5,0],[0,0.75,0],[1,0.25,0],[1,0.5,0],[1,0.75,0]];outlineConnect=0;fontColor=#232F3E;fillColor=#000000;strokeColor=#FFFFFF;dashed=0;verticalLabelPosition=bottom;verticalAlign=top;align=center;html=1;fontSize=12;fontStyle=0;aspect=fixed;shape=mxgraph.aws4.resourceIcon;resIcon=mxgraph.aws4.codecommit;" vertex="1" parent="1">
          <mxGeometry x="600" y="200" width="78" height="78" as="geometry" />
        </mxCell>
        <mxCell id="3iICQHhBgKHDvJo1p9LD-6" value="" style="sketch=0;points=[[0,0,0],[0.25,0,0],[0.5,0,0],[0.75,0,0],[1,0,0],[0,1,0],[0.25,1,0],[0.5,1,0],[0.75,1,0],[1,1,0],[0,0.25,0],[0,0.5,0],[0,0.75,0],[1,0.25,0],[1,0.5,0],[1,0.75,0]];outlineConnect=0;fontColor=#232F3E;fillColor=#01A88D;strokeColor=#ffffff;dashed=0;verticalLabelPosition=bottom;verticalAlign=top;align=center;html=1;fontSize=12;fontStyle=0;aspect=fixed;shape=mxgraph.aws4.resourceIcon;resIcon=mxgraph.aws4.q;" vertex="1" parent="1">
          <mxGeometry x="882" y="200" width="78" height="78" as="geometry" />
        </mxCell>
        <mxCell id="3iICQHhBgKHDvJo1p9LD-9" value="" style="sketch=0;outlineConnect=0;fontColor=#232F3E;gradientColor=none;fillColor=#000000;strokeColor=none;dashed=0;verticalLabelPosition=bottom;verticalAlign=top;align=center;html=1;fontSize=12;fontStyle=0;aspect=fixed;shape=mxgraph.aws4.application_discovery_service_migration_evaluator_collector;" vertex="1" parent="1">
          <mxGeometry x="320.5" y="404" width="78" height="78" as="geometry" />
        </mxCell>
        <mxCell id="3iICQHhBgKHDvJo1p9LD-11" value="Legacy Code" style="text;strokeColor=none;fillColor=none;html=1;fontSize=24;fontStyle=1;verticalAlign=middle;align=center;" vertex="1" parent="1">
          <mxGeometry x="38.5" y="300" width="100" height="40" as="geometry" />
        </mxCell>
        <mxCell id="3iICQHhBgKHDvJo1p9LD-12" value="Upload to GitHub" style="text;html=1;align=center;verticalAlign=middle;whiteSpace=wrap;rounded=0;" vertex="1" parent="1">
          <mxGeometry x="170" y="207" width="100" height="30" as="geometry" />
        </mxCell>
        <mxCell id="3iICQHhBgKHDvJo1p9LD-13" value="AWS CodeConnections accesses code from GitHub" style="text;html=1;align=center;verticalAlign=middle;whiteSpace=wrap;rounded=0;" vertex="1" parent="1">
          <mxGeometry x="400" y="189" width="190" height="30" as="geometry" />
        </mxCell>
        <mxCell id="3iICQHhBgKHDvJo1p9LD-14" value="AWS CodeConnections gives code to Amazon Q for Modernization" style="text;html=1;align=center;verticalAlign=middle;whiteSpace=wrap;rounded=0;" vertex="1" parent="1">
          <mxGeometry x="686" y="189" width="190" height="30" as="geometry" />
        </mxCell>
        <mxCell id="3iICQHhBgKHDvJo1p9LD-16" value="" style="endArrow=async;html=1;rounded=0;entryX=-0.034;entryY=0.388;entryDx=0;entryDy=0;entryPerimeter=0;endFill=1;strokeWidth=3;" edge="1" parent="1" target="3iICQHhBgKHDvJo1p9LD-4">
          <mxGeometry width="50" height="50" relative="1" as="geometry">
            <mxPoint x="400" y="230" as="sourcePoint" />
            <mxPoint x="500" y="200" as="targetPoint" />
          </mxGeometry>
        </mxCell>
        <mxCell id="3iICQHhBgKHDvJo1p9LD-18" value="" style="endArrow=async;html=1;rounded=0;entryX=-0.034;entryY=0.388;entryDx=0;entryDy=0;entryPerimeter=0;endFill=1;strokeWidth=3;" edge="1" parent="1">
          <mxGeometry width="50" height="50" relative="1" as="geometry">
            <mxPoint x="595.5" y="250" as="sourcePoint" />
            <mxPoint x="398.5" y="250" as="targetPoint" />
          </mxGeometry>
        </mxCell>
        <mxCell id="3iICQHhBgKHDvJo1p9LD-19" value="" style="endArrow=async;html=1;rounded=0;entryX=-0.034;entryY=0.388;entryDx=0;entryDy=0;entryPerimeter=0;endFill=1;strokeWidth=3;" edge="1" parent="1">
          <mxGeometry width="50" height="50" relative="1" as="geometry">
            <mxPoint x="683" y="230" as="sourcePoint" />
            <mxPoint x="880" y="230" as="targetPoint" />
          </mxGeometry>
        </mxCell>
        <mxCell id="3iICQHhBgKHDvJo1p9LD-20" value="" style="endArrow=async;html=1;rounded=0;entryX=-0.034;entryY=0.388;entryDx=0;entryDy=0;entryPerimeter=0;endFill=1;strokeWidth=3;" edge="1" parent="1">
          <mxGeometry width="50" height="50" relative="1" as="geometry">
            <mxPoint x="878.5" y="250" as="sourcePoint" />
            <mxPoint x="681.5" y="250" as="targetPoint" />
          </mxGeometry>
        </mxCell>
        <mxCell id="3iICQHhBgKHDvJo1p9LD-21" value="" style="endArrow=async;html=1;rounded=0;endFill=1;strokeWidth=3;" edge="1" parent="1">
          <mxGeometry width="50" height="50" relative="1" as="geometry">
            <mxPoint x="370" y="277.9963636363635" as="sourcePoint" />
            <mxPoint x="370" y="400" as="targetPoint" />
          </mxGeometry>
        </mxCell>
        <mxCell id="3iICQHhBgKHDvJo1p9LD-22" value="" style="endArrow=async;html=1;rounded=0;entryX=-0.034;entryY=0.388;entryDx=0;entryDy=0;entryPerimeter=0;endFill=1;strokeWidth=3;" edge="1" parent="1">
          <mxGeometry width="50" height="50" relative="1" as="geometry">
            <mxPoint x="350" y="400" as="sourcePoint" />
            <mxPoint x="350" y="282.09636363636355" as="targetPoint" />
          </mxGeometry>
        </mxCell>
        <mxCell id="3iICQHhBgKHDvJo1p9LD-23" value="GitHub" style="text;strokeColor=none;fillColor=none;html=1;fontSize=24;fontStyle=1;verticalAlign=middle;align=center;" vertex="1" parent="1">
          <mxGeometry x="309.5" y="149" width="100" height="40" as="geometry" />
        </mxCell>
        <mxCell id="3iICQHhBgKHDvJo1p9LD-24" value="AWS&amp;nbsp;&lt;div&gt;CodeConnections&lt;/div&gt;" style="text;strokeColor=none;fillColor=none;html=1;fontSize=24;fontStyle=1;verticalAlign=middle;align=center;" vertex="1" parent="1">
          <mxGeometry x="589" y="300" width="100" height="40" as="geometry" />
        </mxCell>
        <mxCell id="3iICQHhBgKHDvJo1p9LD-25" value="Amazon Q" style="text;strokeColor=none;fillColor=none;html=1;fontSize=24;fontStyle=1;verticalAlign=middle;align=center;" vertex="1" parent="1">
          <mxGeometry x="871" y="300" width="100" height="40" as="geometry" />
        </mxCell>
        <mxCell id="3iICQHhBgKHDvJo1p9LD-27" value="AWS CodeConnections pushes modernized code to GitHub" style="text;html=1;align=center;verticalAlign=middle;whiteSpace=wrap;rounded=0;" vertex="1" parent="1">
          <mxGeometry x="400" y="270" width="190" height="30" as="geometry" />
        </mxCell>
        <mxCell id="3iICQHhBgKHDvJo1p9LD-28" value="Amazon Q gives modernized code to AWS CodeConnections" style="text;html=1;align=center;verticalAlign=middle;whiteSpace=wrap;rounded=0;" vertex="1" parent="1">
          <mxGeometry x="686" y="270" width="190" height="30" as="geometry" />
        </mxCell>
        <mxCell id="3iICQHhBgKHDvJo1p9LD-29" value="Manual&amp;nbsp;&lt;div&gt;Modernization&lt;/div&gt;" style="text;strokeColor=none;fillColor=none;html=1;fontSize=24;fontStyle=1;verticalAlign=middle;align=center;" vertex="1" parent="1">
          <mxGeometry x="309.5" y="494" width="100" height="40" as="geometry" />
        </mxCell>
        <mxCell id="3iICQHhBgKHDvJo1p9LD-30" value="" style="shape=curlyBracket;whiteSpace=wrap;html=1;rounded=1;flipH=1;labelPosition=right;verticalLabelPosition=middle;align=left;verticalAlign=middle;direction=north;size=0.5;strokeWidth=3;" vertex="1" parent="1">
          <mxGeometry x="527" y="352" width="465" height="20" as="geometry" />
        </mxCell>
        <mxCell id="3iICQHhBgKHDvJo1p9LD-31" value="Automated&amp;nbsp;&lt;span style=&quot;background-color: transparent; color: light-dark(rgb(0, 0, 0), rgb(255, 255, 255));&quot;&gt;Modernization&lt;/span&gt;" style="text;strokeColor=none;fillColor=none;html=1;fontSize=24;fontStyle=1;verticalAlign=middle;align=center;" vertex="1" parent="1">
          <mxGeometry x="709.5" y="390" width="100" height="40" as="geometry" />
        </mxCell>
        <mxCell id="3iICQHhBgKHDvJo1p9LD-32" value="Pull code from GitHub to local machine for modernization" style="text;html=1;align=center;verticalAlign=middle;whiteSpace=wrap;rounded=0;" vertex="1" parent="1">
          <mxGeometry x="238" y="330" width="100" height="30" as="geometry" />
        </mxCell>
        <mxCell id="3iICQHhBgKHDvJo1p9LD-33" value="Push modernized code from local machine to GitHub" style="text;html=1;align=center;verticalAlign=middle;whiteSpace=wrap;rounded=0;" vertex="1" parent="1">
          <mxGeometry x="382" y="330" width="100" height="30" as="geometry" />
        </mxCell>
      </root>
    </mxGraphModel>
  </diagram>
</mxfile>
